<?xml version="1.0" standalone="no"?>
<!DOCTYPE svg PUBLIC "-//W3C//DTD SVG 20010904//EN"
 "http://www.w3.org/TR/2001/REC-SVG-20010904/DTD/svg10.dtd">
<svg version="1.0" xmlns="http://www.w3.org/2000/svg"
 width="640.000000pt" height="640.000000pt" viewBox="0 0 640.000000 640.000000"
 preserveAspectRatio="xMidYMid meet">
<metadata>
Created by potrace 1.14, written by Peter Selinger 2001-2017
</metadata>
<g transform="translate(0.000000,640.000000) scale(0.100000,-0.100000)"
fill="#000000" stroke="none">
<path d="M556 6353 c2 -27 5 -68 8 -93 2 -25 8 -142 11 -260 4 -118 9 -218 11
-221 1 -3 6 -64 9 -135 3 -71 8 -167 11 -214 6 -89 6 -141 0 -148 -2 -2 0 -17
4 -33 5 -17 10 -71 11 -120 1 -49 4 -89 8 -89 3 0 6 -16 7 -35 0 -19 -3 -35
-7 -35 -4 0 -4 -12 0 -27 4 -16 8 -54 7 -86 -1 -31 1 -57 4 -57 3 0 6 -39 6
-88 2 -92 11 -306 19 -432 3 -41 7 -142 10 -225 11 -284 15 -390 20 -470 3
-44 7 -147 10 -230 3 -82 8 -186 11 -230 3 -44 7 -132 9 -195 2 -63 7 -144 10
-180 3 -36 8 -234 10 -440 3 -206 7 -401 9 -433 3 -31 7 -155 11 -274 3 -119
8 -220 11 -224 5 -9 -17 -15 -94 -24 -29 -3 -83 -16 -120 -29 -37 -13 -90 -26
-118 -29 -82 -9 -159 -35 -214 -73 -27 -19 -54 -34 -59 -34 -4 0 -44 -20 -87
-44 l-79 -43 -3 -552 -2 -551 3200 0 3200 0 -2 637 -3 636 -77 21 c-42 12 -79
23 -81 26 -3 3 -8 82 -11 175 -4 94 -8 193 -11 220 -2 28 -7 136 -10 240 -4
105 -12 314 -20 465 -7 151 -14 322 -14 379 -1 58 -4 107 -5 110 -2 3 -7 110
-10 236 -4 127 -9 246 -11 265 -2 19 -7 107 -10 195 -3 88 -8 203 -10 255 -3
52 -10 208 -15 345 -19 483 -20 521 -25 620 -3 55 -12 271 -20 480 -44 1131
-42 1095 -62 1095 -14 0 -15 -27 -9 -232 3 -128 9 -260 11 -293 3 -33 10 -190
15 -350 6 -159 12 -330 15 -380 3 -49 12 -261 20 -470 8 -209 17 -432 20 -495
6 -149 13 -335 25 -650 27 -719 41 -1066 50 -1275 22 -526 33 -905 27 -911 -3
-4 -53 5 -109 19 -57 14 -123 28 -148 32 -78 11 -192 35 -209 44 -9 4 -59 19
-111 31 -158 39 -196 50 -213 63 -12 9 -17 40 -21 142 -3 72 -8 166 -11 210
-8 132 -17 338 -16 373 1 26 -2 32 -19 32 -11 0 -20 5 -20 10 0 6 8 10 18 10
14 0 15 2 2 10 -10 6 -11 10 -2 10 6 0 12 9 12 20 0 13 -5 18 -15 14 -9 -4
-16 0 -16 7 -5 53 -4 72 6 76 7 2 12 28 12 61 1 42 -1 49 -6 27 -10 -46 -19
-17 -16 55 1 43 6 64 13 63 8 -2 12 12 12 37 0 22 -4 40 -8 40 -5 0 -7 -13 -4
-30 3 -19 0 -30 -8 -30 -7 0 -10 8 -7 20 3 11 2 22 -2 24 -6 4 -7 28 -2 74 0
7 6 10 11 7 6 -3 10 1 10 10 0 9 -4 14 -9 11 -14 -9 -34 84 -21 99 8 9 8 15 0
20 -16 10 -12 82 5 89 8 3 15 13 15 21 0 9 -4 13 -10 10 -6 -3 -11 2 -11 12
-1 10 -3 27 -5 38 -2 11 -6 39 -8 62 -2 23 -7 46 -11 53 -4 6 -2 17 5 25 7 9
8 15 0 20 -5 3 -10 1 -10 -6 0 -7 -3 -9 -6 -6 -4 4 -1 13 5 21 10 11 10 38 3
108 -5 51 -10 111 -10 133 0 82 -4 115 -14 121 -10 6 -6 -284 7 -591 3 -60 7
-182 10 -270 3 -88 8 -214 10 -280 2 -66 7 -208 11 -315 3 -107 8 -208 9 -224
6 -50 8 -387 2 -392 -10 -10 -16 75 -27 361 -6 154 -17 435 -25 625 -8 190
-17 408 -20 485 -3 77 -8 181 -10 230 -3 50 -9 212 -15 360 -5 149 -12 320
-15 380 -2 61 -7 173 -10 250 -3 77 -12 304 -20 505 -16 408 -21 517 -35 905
-6 149 -15 365 -20 480 -6 116 -10 220 -10 233 0 19 -5 22 -43 22 l-44 0 3
-52 c2 -29 8 -183 14 -343 6 -159 15 -398 20 -530 6 -132 21 -530 35 -885 14
-355 27 -699 30 -765 11 -249 15 -355 20 -510 3 -88 8 -205 10 -260 3 -55 10
-233 15 -395 6 -162 15 -389 20 -505 27 -618 29 -587 -30 -545 -26 19 -29 27
-34 103 -6 95 -23 440 -31 637 -3 74 -7 187 -10 250 -2 63 -7 156 -10 205 -3
50 -8 162 -10 250 -3 88 -7 189 -10 225 -4 60 -10 180 -20 465 -2 61 -7 175
-11 255 -3 80 -7 237 -9 350 -1 113 -7 223 -12 245 -5 22 -6 51 -3 65 4 14 3
37 -1 52 -4 15 -10 109 -14 210 -4 101 -8 228 -10 283 -2 55 -7 159 -10 230
-3 72 -7 177 -9 235 -9 240 -16 399 -22 456 -3 33 -5 109 -6 167 0 99 -2 107
-19 107 -19 0 -20 -6 -14 -122 14 -282 14 -368 2 -368 -8 -1 -7 -5 3 -13 16
-13 22 -56 13 -97 -5 -23 -6 -24 -14 -5 -6 16 -8 14 -6 -12 0 -17 5 -29 9 -27
5 3 10 -1 13 -8 8 -23 11 -218 3 -218 -4 0 -4 -7 -1 -17 4 -11 3 -14 -5 -9 -7
4 -12 3 -12 -3 0 -5 5 -13 10 -16 6 -4 10 -18 10 -33 0 -15 2 -63 5 -106 4
-57 2 -82 -7 -87 -9 -6 -9 -13 0 -34 7 -15 8 -24 2 -20 -5 3 -10 1 -10 -4 0
-6 5 -11 10 -11 13 0 13 -26 -2 -66 -10 -28 -9 -36 5 -52 9 -10 16 -32 16 -48
-1 -17 -3 -22 -6 -11 -2 9 -9 17 -15 17 -5 0 -7 -8 -4 -17 4 -9 1 -20 -6 -25
-10 -6 -10 -10 2 -18 19 -13 4 -13 -19 0 -30 15 -39 57 -46 205 -7 149 -8 165
-25 234 -6 24 -8 51 -5 58 8 23 -13 53 -32 46 -11 -4 -14 -3 -9 5 4 7 14 12
22 12 8 0 13 4 9 9 -3 5 -1 12 4 15 5 4 8 48 7 99 -2 50 -4 118 -5 150 0 36
-5 56 -11 52 -5 -3 -10 -2 -10 4 0 5 6 11 12 14 10 3 10 7 1 17 -7 7 -9 25 -7
40 3 15 1 44 -6 66 -6 21 -13 62 -15 89 -2 28 -1 40 2 28 2 -13 9 -23 14 -23
8 0 6 21 -7 72 -3 9 -1 19 4 22 5 3 7 18 4 33 -5 25 -6 25 -13 8 -6 -16 -8
-13 -8 13 -1 18 3 31 8 28 5 -4 9 24 9 64 l0 70 -253 0 c-194 0 -254 -3 -258
-12 -4 -10 -7 -10 -18 0 -19 17 -31 15 -27 -5 2 -11 13 -18 28 -18 20 0 26 -6
30 -30 4 -21 11 -30 25 -30 11 -1 19 -7 17 -14 -5 -23 9 -51 24 -51 11 0 13
-6 9 -20 -5 -16 -2 -20 17 -20 14 0 18 -3 11 -8 -8 -5 -8 -12 3 -27 8 -11 18
-19 22 -17 4 1 10 -16 13 -40 3 -23 11 -44 17 -46 6 -2 14 -19 18 -38 5 -29 9
-33 29 -28 20 5 24 1 28 -23 l4 -28 2 28 c1 24 4 27 25 21 13 -3 27 -1 30 5
11 17 23 13 29 -9 3 -11 1 -20 -4 -20 -5 0 -9 -8 -9 -17 0 -15 -2 -14 -14 3
-8 10 -18 16 -22 12 -4 -4 -1 -15 6 -23 11 -13 10 -18 -6 -29 -17 -13 -17 -14
9 -13 15 1 27 6 27 11 0 5 6 3 14 -4 18 -14 9 -43 -11 -35 -11 4 -13 1 -9 -12
8 -21 -10 -33 -51 -33 -18 0 -33 -4 -33 -10 0 -5 5 -10 12 -10 6 0 3 -7 -8
-15 -10 -8 -16 -15 -12 -15 3 0 0 -21 -8 -46 -7 -26 -12 -50 -9 -54 3 -4 -7
-11 -21 -14 -25 -7 -26 -8 -9 -26 15 -16 15 -22 5 -35 -10 -11 -10 -18 -1 -29
14 -17 -2 -32 -21 -20 -6 4 -8 3 -5 -3 8 -12 -14 -23 -46 -23 -12 0 -53 16
-91 35 -38 20 -71 33 -74 31 -7 -8 -75 23 -84 37 -4 7 -20 13 -35 14 -15 0
-53 8 -83 17 -30 9 -66 19 -80 22 -14 3 -31 12 -38 22 -10 14 -17 14 -42 5
-27 -10 -31 -9 -42 10 -7 14 -13 17 -16 9 -5 -17 -26 -15 -64 6 -26 14 -53 17
-133 16 -55 -1 -104 1 -110 5 -12 8 -86 8 -100 -1 -6 -3 -37 -6 -69 -7 -33 -1
-65 -6 -71 -11 -7 -6 -16 -5 -23 2 -8 8 -15 8 -26 -1 -8 -7 -38 -15 -68 -17
-60 -6 -100 -12 -143 -20 -16 -3 -41 -5 -55 -5 -14 -1 -31 -5 -37 -11 -15 -12
-93 -17 -93 -6 0 4 6 8 14 8 18 0 27 23 16 40 -5 8 -5 21 0 30 9 17 7 150 -2
166 -3 5 -4 73 -3 152 1 78 -2 145 -7 148 -4 3 -5 17 -2 31 5 20 4 24 -6 18
-10 -6 -12 -4 -6 11 4 10 9 40 11 67 l4 47 -72 0 -72 0 1 -37 c1 -34 4 -97 20
-388 4 -73 12 -268 14 -322 0 -7 9 -13 19 -13 11 0 23 -5 26 -10 9 -14 88 -3
101 15 6 8 14 12 17 8 4 -3 7 -2 7 3 0 5 24 9 53 10 28 1 84 6 122 12 82 13
442 15 500 3 123 -27 154 -33 194 -37 25 -2 52 -11 61 -19 9 -8 25 -12 37 -9
27 7 40 -14 18 -30 -15 -11 -16 -15 -4 -34 24 -39 60 -41 39 -3 -14 27 -5 41
25 41 16 0 25 -7 29 -24 3 -14 14 -26 23 -28 12 -2 18 -14 19 -38 l2 -35 -19
24 c-17 20 -20 21 -25 6 -6 -16 4 -29 30 -38 5 -2 1 -15 -9 -30 -20 -31 -65
-38 -65 -9 -1 16 -1 16 -11 0 -5 -10 -16 -15 -25 -11 -13 5 -15 1 -10 -15 5
-15 1 -24 -12 -31 -11 -6 -22 -8 -25 -4 -3 3 -14 -2 -23 -11 -9 -10 -23 -15
-30 -12 -14 5 -44 -18 -44 -35 0 -4 27 -7 60 -5 33 2 60 0 60 -5 0 -5 -6 -9
-14 -9 -8 0 -21 -9 -29 -20 -8 -12 -21 -18 -29 -15 -11 4 -17 -1 -20 -17 -6
-34 1 -48 24 -48 14 0 18 -5 14 -15 -3 -8 0 -18 7 -22 14 -9 35 -41 43 -65 4
-10 10 -18 14 -18 4 0 12 -11 18 -24 8 -18 7 -28 -3 -43 -8 -10 -15 -41 -15
-69 0 -29 -7 -65 -15 -80 -8 -16 -15 -43 -15 -61 0 -41 -17 -86 -30 -78 -13 8
-10 -46 4 -64 8 -11 8 -13 -1 -8 -8 5 -11 -3 -9 -27 3 -27 -2 -37 -20 -47 -13
-7 -24 -16 -24 -21 0 -4 -9 -17 -19 -27 -18 -18 -39 -132 -23 -130 18 3 20 -3
7 -27 -11 -23 -10 -28 10 -50 12 -13 30 -24 39 -24 20 0 21 -23 1 -40 -19 -16
-19 -30 0 -30 8 0 15 -9 15 -20 0 -11 -6 -20 -14 -20 -8 0 -16 -6 -19 -12 -3
-9 -14 -6 -37 11 -22 16 -35 20 -38 13 -6 -19 -32 -14 -32 6 0 13 -2 14 -9 3
-10 -16 -72 -6 -68 12 1 7 -7 12 -18 12 -11 0 -30 6 -42 13 -12 6 -31 12 -42
12 -11 0 -23 5 -26 10 -3 6 -15 10 -26 10 -11 0 -59 19 -107 42 -67 33 -97 42
-132 41 -25 -1 -128 -4 -229 -7 -186 -4 -196 -6 -296 -51 -16 -8 -50 -19 -74
-25 -24 -6 -60 -22 -80 -34 -20 -13 -48 -23 -61 -23 -14 0 -32 -3 -42 -7 -9
-4 -29 -1 -46 8 -19 10 -42 13 -61 10 -18 -4 -42 0 -62 10 -18 9 -51 16 -74
16 -32 0 -49 7 -70 26 -40 37 -108 43 -164 15 -22 -12 -43 -21 -47 -21 -10 0
4 91 16 106 6 7 22 74 34 151 27 154 58 294 83 363 13 38 20 94 24 203 0 9 5
17 10 17 5 0 8 20 5 45 -3 37 -1 45 12 45 15 1 14 3 -2 15 -15 12 -17 17 -7
29 10 11 9 16 -6 25 -10 6 -13 11 -7 11 8 0 11 31 11 93 -1 50 2 105 7 121 6
23 4 27 -8 23 -8 -3 -17 1 -20 9 -3 8 1 14 9 14 19 0 19 34 1 53 -11 11 -12
17 -3 27 9 10 9 14 0 17 -18 7 -16 24 5 39 10 8 12 13 5 14 -9 0 -11 15 -8 51
4 46 2 50 -16 44 -11 -4 -19 -2 -19 4 0 6 4 11 9 11 16 0 24 40 11 55 -15 18
-11 102 8 148 13 32 13 40 2 47 -7 4 -15 31 -18 60 -4 41 -2 51 9 48 8 -2 16
0 17 5 1 4 -1 7 -5 8 -15 1 -23 41 -12 55 7 9 7 19 0 32 -13 25 -6 92 11 103
11 8 11 11 -1 18 -7 5 -10 14 -7 20 5 8 -60 11 -236 11 l-244 0 0 -45 c0 -25
4 -45 8 -45 14 0 9 -16 -12 -40 -22 -25 -24 -33 -13 -44 4 -3 13 4 19 16 12
21 13 20 7 -13 -3 -21 -1 -39 5 -43 6 -4 9 -13 6 -21 -4 -8 -10 -12 -15 -9 -5
3 -9 0 -9 -5 0 -6 5 -11 10 -11 16 0 12 -14 -10 -38 -17 -18 -18 -22 -5 -22 8
0 15 5 15 10 0 6 7 10 15 10 8 0 15 -4 15 -10 0 -5 -4 -10 -10 -10 -5 0 -10
-7 -10 -15 0 -8 5 -15 10 -15 6 0 10 -11 10 -24 0 -14 5 -28 10 -31 8 -5 8
-11 0 -20 -6 -7 -8 -26 -6 -41 4 -18 -1 -35 -12 -47 -9 -10 -12 -18 -7 -17 32
7 35 0 20 -37 -13 -31 -14 -42 -4 -61 9 -16 9 -26 2 -33 -14 -14 -4 -49 14
-49 12 0 13 -3 3 -15 -6 -8 -8 -20 -4 -27 4 -7 9 -48 11 -91 1 -44 7 -85 13
-92 11 -13 3 -45 -13 -56 -5 -4 -6 -13 -1 -20 19 -31 21 -93 4 -114 -6 -8 -7
-14 -1 -17 5 -1 11 -14 13 -28 1 -14 7 -28 12 -32 6 -4 5 -17 -2 -32 -7 -16
-8 -26 -2 -26 14 0 13 -37 -1 -42 -8 -3 -9 -10 -1 -23 19 -37 30 -128 18 -147
-9 -15 -7 -25 7 -50 12 -21 15 -34 8 -36 -14 -5 -14 -44 0 -76 9 -19 9 -29 0
-40 -8 -10 -9 -16 -1 -21 5 -3 7 -17 4 -31 -4 -15 -2 -24 6 -24 6 0 9 -4 5 -9
-3 -5 -8 -30 -10 -54 -4 -33 -2 -49 11 -61 11 -11 13 -20 6 -29 -5 -7 -8 -21
-6 -32 6 -33 7 -98 2 -137 -4 -29 -2 -38 10 -38 11 0 12 -3 3 -14 -9 -11 -9
-15 1 -19 7 -3 8 -6 2 -6 -8 -1 -8 -18 -2 -57 5 -31 7 -59 4 -61 -2 -3 -59
-15 -125 -29 -139 -27 -185 -44 -200 -72 -17 -32 -13 -90 8 -120 11 -16 23
-61 30 -113 14 -106 55 -272 80 -319 23 -44 85 -77 173 -92 53 -8 68 -15 80
-36 l16 -25 6 30 c7 31 27 43 74 43 13 0 55 7 94 16 69 16 108 40 108 68 0 12
-11 10 -52 -9 -73 -33 -172 -48 -282 -43 -120 5 -151 22 -182 99 -42 104 -66
296 -44 353 12 33 26 32 160 -2 l105 -27 7 -95 c15 -213 54 -364 43 -170 -3
58 -9 128 -13 155 -13 84 1 105 48 67 15 -12 24 -33 27 -65 6 -54 24 -58 34
-8 9 41 9 41 52 34 35 -5 36 -6 33 -44 -3 -30 0 -42 14 -49 22 -12 78 -14 109
-4 23 7 24 5 18 -24 -4 -18 -3 -32 1 -32 11 0 47 58 83 133 37 78 68 107 115
107 41 0 64 -22 64 -64 0 -41 37 -158 55 -171 7 -6 18 -28 24 -50 7 -27 28
-55 71 -94 66 -61 71 -82 23 -98 -39 -13 -141 2 -166 24 -15 13 -34 19 -57 17
-130 -9 -189 -17 -215 -28 -16 -8 -37 -16 -46 -19 -9 -3 -22 -26 -29 -50 -7
-28 -17 -44 -24 -41 -16 6 -66 -51 -66 -75 0 -20 -30 -84 -42 -89 -4 -2 -4
-10 -1 -18 3 -8 0 -21 -6 -28 -8 -10 -9 -16 -1 -21 6 -3 7 -12 3 -18 -26 -41
-39 -121 -47 -299 0 -21 -1 -21 -27 -7 -11 6 -18 16 -16 22 3 7 -9 39 -25 72
-28 59 -29 59 -23 20 3 -22 8 -50 11 -62 2 -13 1 -23 -3 -23 -7 0 -9 -64 -3
-80 1 -3 2 -32 4 -65 1 -33 5 -66 10 -73 4 -6 4 -17 0 -23 -8 -14 -12 -159 -4
-164 7 -4 5 -55 -4 -90 -3 -13 -1 -27 4 -30 6 -4 8 -15 5 -26 -4 -11 -2 -19 4
-19 6 0 11 -7 11 -15 0 -8 -4 -15 -8 -15 -13 0 -17 -54 -8 -107 3 -18 1 -33
-5 -33 -10 0 -1 -52 12 -60 14 -10 7 -104 -10 -117 -14 -11 -14 -12 3 -13 15
0 16 -3 6 -15 -11 -14 -7 -19 13 -16 11 2 8 -17 -4 -24 -6 -4 -8 -13 -5 -20 2
-7 2 -16 -2 -20 -10 -10 -10 -75 1 -75 5 0 4 -6 -2 -14 -9 -11 -9 -15 1 -19
11 -4 11 -6 0 -6 -10 -1 -10 -4 0 -14 6 -8 23 -11 37 -9 20 4 23 2 14 -8 -6
-7 -42 -14 -80 -15 -37 -2 -95 -11 -128 -20 -33 -9 -100 -28 -150 -41 -49 -14
-94 -29 -99 -34 -6 -6 -16 -10 -24 -10 -8 0 -37 -14 -65 -31 -42 -26 -56 -30
-86 -24 -20 4 -58 7 -86 6 -38 -1 -46 1 -33 9 14 9 17 21 13 63 -2 29 -7 106
-10 172 -2 66 -7 158 -10 205 -3 47 -8 150 -10 230 -3 80 -7 165 -10 190 -3
25 -7 95 -10 155 -3 61 -7 146 -10 190 -11 187 -15 269 -20 425 -3 91 -8 215
-10 275 -3 61 -7 166 -9 235 -3 69 -8 163 -11 210 -3 47 -7 159 -10 250 -3 91
-8 192 -10 225 -2 33 -6 143 -10 245 -4 102 -9 212 -10 245 -5 101 -13 290
-19 495 -4 107 -9 224 -12 260 -6 60 -12 219 -17 402 -1 42 -5 80 -9 83 -4 4
-3 15 2 25 5 10 8 19 5 21 -5 5 -17 239 -16 312 l1 57 -148 0 -149 0 3 -47z
m3761 -75 c-3 -8 -6 -5 -6 6 -1 11 2 17 5 13 3 -3 4 -12 1 -19z m128 -188 c3
-5 1 -10 -4 -10 -6 0 -11 5 -11 10 0 6 2 10 4 10 3 0 8 -4 11 -10z m125 -55
c0 -5 -5 -3 -10 5 -5 8 -10 20 -10 25 0 6 5 3 10 -5 5 -8 10 -19 10 -25z m25
5 c3 -5 1 -10 -4 -10 -6 0 -11 5 -11 10 0 6 2 10 4 10 3 0 8 -4 11 -10z m45
-7 c0 -11 3 -14 8 -7 8 12 42 26 42 18 0 -3 -12 -16 -26 -29 -17 -16 -22 -25
-13 -25 11 0 11 -2 -1 -10 -8 -5 -26 -9 -40 -8 -22 1 -23 1 -3 5 19 4 21 9 16
39 -4 22 -2 34 6 34 6 0 11 -8 11 -17z m-100 -14 c0 -5 -4 -9 -10 -9 -5 0 -10
7 -10 16 0 8 5 12 10 9 6 -3 10 -10 10 -16z m110 -77 c0 -5 -13 -7 -30 -4 -16
2 -30 6 -30 8 0 2 14 4 30 4 17 0 30 -4 30 -8z m0 -62 c0 -5 -5 -10 -11 -10
-5 0 -7 5 -4 10 3 6 8 10 11 10 2 0 4 -4 4 -10z m-584 -364 c9 -15 21 -22 30
-19 8 3 14 -1 14 -8 0 -11 2 -11 9 0 8 12 12 10 22 -12 10 -22 10 -30 0 -40
-10 -9 -15 -8 -26 6 -13 18 -14 18 -24 0 -6 -10 -11 -12 -11 -5 0 6 -6 12 -14
12 -8 0 -17 7 -20 16 -3 8 -10 12 -16 9 -9 -6 -30 33 -30 56 0 20 50 8 66 -15z
m165 -52 l24 -27 -22 6 c-25 6 -32 -7 -9 -16 9 -4 12 -15 9 -31 -7 -34 -20
-41 -49 -26 -18 10 -22 19 -18 37 4 15 2 23 -7 23 -10 0 -10 3 -2 11 6 6 9 17
6 24 -4 11 6 17 38 24 3 0 16 -11 30 -25z m-81 -68 c0 -7 -9 -21 -21 -32 -20
-18 -20 -18 -13 11 4 17 9 33 11 38 6 11 23 -2 23 -17z m-170 5 c0 -5 -7 -16
-15 -25 -13 -13 -13 -16 1 -31 13 -12 14 -19 4 -30 -7 -8 -21 -15 -31 -15 -11
0 -19 -4 -19 -10 0 -5 -7 -10 -15 -10 -20 0 -19 39 1 47 8 3 13 12 10 19 -3 8
-1 14 5 14 6 0 9 6 7 12 -3 7 0 18 6 25 13 14 46 17 46 4z m118 -19 c2 -7 -3
-12 -12 -12 -9 0 -16 7 -16 16 0 17 22 14 28 -4z m282 -12 c0 -5 -5 -10 -11
-10 -5 0 -7 5 -4 10 3 6 8 10 11 10 2 0 4 -4 4 -10z m-510 -100 c0 -37 -29
-69 -61 -68 -16 1 -29 6 -29 12 1 16 48 48 60 41 6 -3 10 3 10 14 0 12 5 21
10 21 6 0 10 -9 10 -20z m101 -3 c-13 -13 -26 -3 -16 12 3 6 11 8 17 5 6 -4 6
-10 -1 -17z m916 -169 c-3 -8 -6 -5 -6 6 -1 11 2 17 5 13 3 -3 4 -12 1 -19z
m-1230 -944 c-3 -3 -12 -4 -19 -1 -8 3 -5 6 6 6 11 1 17 -2 13 -5z m-407 -84
c0 -5 -12 -10 -27 -10 -22 0 -25 2 -13 10 20 13 40 13 40 0z m-1548 -40 c-2
-14 -7 -28 -10 -31 -11 -9 -157 15 -155 26 3 14 81 34 128 32 37 -2 40 -4 37
-27z m88 -11 c0 -38 -1 -40 -27 -37 -24 3 -28 8 -31 41 -3 35 -2 37 27 37 30
0 31 -2 31 -41z m-410 -19 c0 -5 -7 -10 -15 -10 -8 0 -15 5 -15 10 0 6 7 10
15 10 8 0 15 -4 15 -10z m3361 -7 c24 -4 54 -27 100 -74 56 -56 69 -75 79
-121 7 -29 16 -66 21 -82 12 -38 11 -96 0 -96 -10 0 -16 23 -26 105 -7 50 -45
130 -74 152 -21 16 -86 16 -136 0 -43 -14 -239 -17 -252 -3 -11 11 37 47 120
89 72 37 106 43 168 30z m-2428 -79 c-4 -13 -63 -11 -63 2 0 24 23 34 44 20
12 -7 20 -17 19 -22z m1303 -117 c34 -7 89 -13 123 -12 33 1 61 -2 61 -7 0 -5
22 -6 48 -2 38 5 52 2 65 -10 9 -9 20 -18 24 -19 4 -1 7 -14 5 -29 -2 -15 2
-36 7 -47 8 -14 7 -20 -4 -25 -8 -3 -15 -15 -15 -26 0 -11 -7 -20 -15 -20 -9
0 -20 -11 -25 -25 -10 -25 -26 -33 -32 -15 -6 17 -63 -5 -66 -26 -2 -10 -11
-25 -20 -31 -14 -12 -14 -13 1 -13 9 0 17 -5 17 -11 0 -6 -9 -8 -20 -4 -14 5
-20 2 -20 -9 0 -9 -4 -16 -10 -16 -5 0 -7 -7 -4 -15 4 -8 1 -22 -6 -30 -13
-16 -9 -18 25 -16 18 2 18 0 -5 -19 -16 -12 -33 -18 -47 -15 -13 3 -23 1 -23
-6 0 -6 -8 -18 -17 -27 -16 -16 -16 -16 -10 1 8 22 -11 22 -35 0 -27 -24 -85
-26 -91 -2 -6 22 -36 25 -56 7 -11 -11 -13 -10 -8 5 8 21 -18 24 -26 2 -5 -12
-10 -12 -33 0 -15 7 -31 20 -36 27 -8 10 -9 9 -5 -4 7 -22 -3 -30 -20 -17 -7
6 -13 8 -13 4 0 -4 -6 -2 -14 4 -11 10 -17 8 -25 -6 -7 -13 -10 -14 -11 -4 0
11 -3 10 -13 -3 -12 -16 -17 -17 -37 -6 l-24 13 24 9 c17 6 21 11 12 17 -6 4
-18 15 -25 26 -13 17 -15 17 -36 -4 -19 -19 -35 -23 -123 -26 -82 -3 -104 -1
-112 11 -11 14 -42 22 -98 23 -18 1 -26 5 -22 14 3 9 39 18 102 25 113 13 245
45 279 68 31 20 42 50 54 148 15 118 16 120 91 135 35 7 69 15 75 19 17 11
122 5 189 -11z m1112 -134 c8 -26 20 -66 28 -88 8 -23 13 -59 12 -81 0 -23 2
-46 6 -52 3 -6 2 -13 -4 -17 -5 -3 -10 -19 -10 -36 0 -16 -3 -29 -8 -29 -4 0
-14 -15 -21 -32 -18 -42 -39 -60 -93 -82 -79 -33 -93 -42 -96 -64 -3 -16 4
-25 22 -32 14 -5 26 -11 26 -14 0 -2 3 -11 6 -19 3 -9 -3 -16 -15 -20 -12 -3
-21 -1 -21 5 0 5 -4 7 -9 4 -15 -9 -46 22 -46 46 0 15 -5 22 -15 19 -38 -9
-78 -20 -108 -30 -25 -7 -32 -7 -29 2 2 7 16 13 30 15 18 2 27 9 27 21 0 33
61 79 115 87 68 9 87 17 129 54 35 31 66 81 66 106 0 7 7 20 16 29 13 13 14
21 6 38 -16 33 -33 117 -27 128 4 5 -1 9 -10 9 -28 0 -45 74 -20 92 15 11 29
-7 43 -59z m-1888 37 c18 -10 51 -7 71 6 6 4 72 8 146 9 l135 2 -5 -57 c-9
-105 -43 -138 -164 -162 -82 -16 -310 -16 -349 0 -38 16 -67 72 -47 91 7 7 11
17 7 23 -4 6 -1 14 6 18 7 4 10 15 7 25 -4 9 -11 13 -17 10 -6 -3 -10 4 -10
17 0 22 4 23 45 21 24 -1 47 1 50 6 6 11 101 4 125 -9z m1750 -50 c0 -5 -5
-10 -11 -10 -5 0 -7 5 -4 10 3 6 8 10 11 10 2 0 4 -4 4 -10z m-30 -20 c0 -5
-7 -10 -16 -10 -8 0 -12 5 -9 10 3 6 10 10 16 10 5 0 9 -4 9 -10z m-740 -106
c0 -8 -5 -12 -10 -9 -6 4 -8 11 -5 16 9 14 15 11 15 -7z m540 -29 c0 -8 6 -15
14 -15 14 0 18 -11 32 -92 6 -36 5 -38 -20 -38 -22 0 -26 4 -26 31 0 16 -4 28
-9 25 -10 -7 -22 17 -28 54 -3 19 -1 22 7 10 8 -13 10 -12 11 5 1 11 1 23 0
28 0 4 4 7 9 7 6 0 10 -7 10 -15z m571 -62 c0 -38 2 -75 3 -83 2 -8 7 -130 11
-270 4 -140 9 -273 10 -295 2 -22 5 -137 9 -255 4 -118 8 -249 11 -290 2 -41
7 -183 11 -315 3 -132 8 -243 11 -247 12 -21 -47 -5 -68 18 -41 44 -141 84
-204 82 -22 -1 -47 12 -85 41 -56 42 -103 61 -152 61 -19 0 -28 -5 -28 -15 0
-21 30 -65 44 -65 23 0 76 -62 86 -102 23 -84 -29 -296 -92 -375 -15 -20 -28
-42 -28 -49 0 -8 -10 -14 -21 -14 -20 0 -21 4 -15 43 15 105 24 146 44 197 24
63 42 183 31 202 -12 19 -19 5 -25 -48 -9 -75 -29 -144 -57 -196 -14 -27 -27
-73 -31 -110 -7 -64 -46 -164 -59 -151 -4 3 -7 1 -7 -5 0 -7 -5 -12 -11 -12
-5 0 -7 5 -4 10 4 6 -8 10 -29 10 -34 0 -36 2 -36 35 0 25 -8 43 -30 65 -22
22 -29 37 -25 51 4 11 11 17 16 14 5 -4 9 2 9 12 0 39 21 93 37 93 11 0 14 8
11 29 -3 21 -1 28 9 24 8 -3 13 3 13 16 0 26 8 27 27 4 14 -17 14 -17 9 0 -3
11 0 17 9 17 20 0 19 17 -2 29 -17 10 -17 10 -1 11 24 0 11 30 -13 30 -12 0
-19 7 -19 20 0 16 -7 20 -32 20 -35 0 -31 12 5 15 17 1 23 9 27 36 4 23 11 33
20 31 10 -1 8 3 -4 13 -17 13 -15 19 5 17 4 -1 10 20 15 46 10 62 11 66 13 72
7 14 11 52 15 120 2 41 6 82 9 90 9 22 3 50 -14 61 -11 7 -8 9 10 9 18 0 22 4
18 20 -3 11 -1 23 4 26 5 3 7 10 4 15 -4 5 -1 9 6 9 9 0 9 3 0 14 -9 11 -9 16
0 21 6 4 9 19 5 36 -3 16 -2 29 2 29 9 0 27 49 37 100 8 40 60 201 80 245 7
17 21 55 31 85 10 30 40 99 66 152 26 53 48 101 48 107 0 5 21 40 46 78 57 84
94 153 94 173 0 9 4 20 8 26 5 5 17 32 27 59 20 55 63 125 76 125 5 0 9 -30
10 -67z m-685 26 c3 -6 0 -15 -7 -20 -12 -8 -11 -11 3 -19 12 -7 16 -20 13
-40 -5 -39 -12 -50 -35 -50 -25 0 -29 41 -11 98 13 42 24 51 37 31z m-23 -164
c-3 -8 -12 -15 -19 -15 -12 0 -12 4 -4 20 12 23 32 18 23 -5z m-2153 -110 c-7
-9 -15 -13 -17 -11 -7 7 7 26 19 26 6 0 6 -6 -2 -15z m-35 -65 c3 -5 1 -10 -4
-10 -6 0 -11 5 -11 10 0 6 2 10 4 10 3 0 8 -4 11 -10z m21 -92 c-1 -7 -5 -19
-9 -25 -10 -16 3 -16 39 -3 19 7 30 7 40 -1 19 -16 8 -29 -25 -29 -17 0 -38
-11 -57 -30 -16 -16 -32 -30 -35 -30 -13 0 -19 68 -10 93 6 14 20 27 33 30 13
2 24 5 25 6 1 0 0 -5 -1 -11z m197 -207 c13 -13 18 -24 12 -30 -15 -13 -75
-31 -105 -31 -15 0 -38 -9 -51 -19 -22 -18 -24 -27 -24 -114 0 -53 -4 -99 -8
-103 -4 -4 -21 0 -37 10 -21 12 -40 15 -65 10 l-35 -6 5 67 c7 83 28 125 97
193 l53 54 68 -5 c53 -3 74 -9 90 -26z m-398 -173 c6 -4 2 -8 -7 -8 -10 0 -18
7 -18 17 0 9 3 12 8 7 4 -5 12 -12 17 -16z m2495 -93 c19 -23 8 -25 -14 -4
-11 11 -15 19 -9 19 6 0 16 -7 23 -15z m60 -39 c0 -3 -4 -8 -10 -11 -5 -3 -10
-1 -10 4 0 6 5 11 10 11 6 0 10 -2 10 -4z m-36 -41 c-4 -8 -8 -15 -10 -15 -2
0 -4 7 -4 15 0 8 4 15 10 15 5 0 7 -7 4 -15z m-22 -185 c-23 -22 -32 -25 -32
-12 0 5 10 14 23 20 32 15 33 14 9 -8z m-2040 -415 c47 2 95 6 106 9 13 4 22
1 26 -9 3 -8 12 -15 21 -15 8 0 15 -6 15 -14 0 -8 7 -22 16 -30 8 -9 17 -26
18 -38 2 -13 7 -36 11 -51 6 -21 3 -31 -10 -41 -17 -12 -17 -14 3 -34 12 -12
22 -28 23 -34 4 -58 6 -70 15 -76 6 -4 10 -16 8 -27 -2 -10 2 -26 9 -34 14
-16 19 -71 7 -86 -14 -19 -19 -59 -9 -71 14 -17 7 -60 -9 -56 -15 3 -15 -3 -2
-29 8 -14 7 -19 -1 -19 -6 0 -8 -7 -5 -16 4 -12 2 -15 -9 -10 -16 6 -20 -8
-16 -53 2 -18 -2 -22 -14 -17 -9 3 -13 2 -10 -3 3 -5 1 -12 -5 -16 -5 -3 -10
-1 -10 6 0 7 -8 9 -21 6 -16 -4 -18 -3 -8 9 7 9 8 14 1 14 -23 0 -42 -13 -43
-29 0 -10 -2 -11 -6 -3 -2 6 -8 10 -13 7 -13 -8 -116 100 -138 146 -50 102
-76 289 -52 376 14 47 74 118 145 170 l30 22 -31 0 c-31 1 -131 -45 -159 -72
-11 -11 -26 -14 -53 -10 -45 7 -44 6 -36 27 3 9 14 16 23 16 26 0 41 21 41 55
0 39 6 46 34 36 11 -5 60 -7 108 -6z m-1325 -471 c-3 -3 -12 -4 -19 -1 -8 3
-5 6 6 6 11 1 17 -2 13 -5z m3223 -148 c0 -2 -7 -9 -15 -16 -12 -10 -15 -10
-15 4 0 9 7 16 15 16 8 0 15 -2 15 -4z m-10 -65 c0 -18 -18 -21 -30 -6 -10 13
-9 15 9 15 11 0 21 -4 21 -9z m-165 -206 c0 -35 -17 -43 -23 -11 -3 13 13 46
22 46 0 0 1 -16 1 -35z m42 -21 c-3 -3 -12 -4 -19 -1 -8 3 -5 6 6 6 11 1 17
-2 13 -5z m-70 -29 c-4 -8 -2 -17 2 -20 5 -3 11 2 15 10 3 8 10 15 17 15 6 0
9 -6 6 -14 -3 -8 -2 -16 4 -18 5 -2 -11 -10 -36 -19 -48 -17 -65 -11 -40 14 8
9 15 23 15 31 0 9 5 16 11 16 6 0 9 -7 6 -15z m78 -15 c3 -5 1 -10 -4 -10 -6
0 -11 5 -11 10 0 6 2 10 4 10 3 0 8 -4 11 -10z m-1091 -9 c3 -5 -1 -11 -9 -15
-9 -3 -15 0 -15 9 0 16 16 20 24 6z"/>
<path d="M4690 3670 c0 -5 5 -10 10 -10 6 0 10 5 10 10 0 6 -4 10 -10 10 -5 0
-10 -4 -10 -10z"/>
<path d="M2418 1143 c7 -3 16 -2 19 1 4 3 -2 6 -13 5 -11 0 -14 -3 -6 -6z"/>
<path d="M3360 6350 c0 -5 5 -10 10 -10 6 0 10 5 10 10 0 6 -4 10 -10 10 -5 0
-10 -4 -10 -10z"/>
<path d="M4540 5980 c0 -5 5 -10 10 -10 6 0 10 5 10 10 0 6 -4 10 -10 10 -5 0
-10 -4 -10 -10z"/>
<path d="M4481 5894 c0 -11 3 -14 6 -6 3 7 2 16 -1 19 -3 4 -6 -2 -5 -13z"/>
<path d="M3615 5630 c-4 -7 -2 -16 6 -21 18 -11 23 -4 11 17 -7 12 -11 13 -17
4z"/>
<path d="M2675 5620 c-3 -5 3 -10 14 -10 11 0 23 5 26 10 3 6 -3 10 -14 10
-11 0 -23 -4 -26 -10z"/>
<path d="M2545 5558 c-16 -6 -42 -15 -57 -20 -14 -5 -28 -18 -31 -29 -3 -11
-14 -19 -27 -19 -16 0 -20 -4 -16 -15 4 -10 -1 -15 -15 -15 -12 0 -33 -8 -47
-18 -15 -10 -35 -22 -44 -25 -10 -4 -18 -15 -18 -26 0 -11 -7 -26 -15 -33 -36
-30 -45 -40 -45 -49 0 -6 35 17 78 49 42 32 91 66 107 74 17 9 39 25 49 37 11
12 23 21 28 21 9 0 108 69 108 76 0 6 -22 3 -55 -8z"/>
<path d="M3779 5452 c-14 -9 -24 -23 -22 -29 3 -7 0 -13 -6 -13 -6 0 -11 -7
-11 -15 0 -8 8 -15 18 -15 26 0 34 11 20 28 -10 11 -8 17 7 29 11 7 28 12 38
9 24 -6 49 3 41 15 -8 14 -57 9 -85 -9z"/>
<path d="M2781 5376 c-7 -9 -8 -17 -2 -20 13 -9 43 4 38 17 -5 17 -23 19 -36
3z"/>
<path d="M3805 5380 c-3 -5 -1 -10 4 -10 6 0 11 5 11 10 0 6 -2 10 -4 10 -3 0
-8 -4 -11 -10z"/>
<path d="M2810 5280 c0 -5 5 -10 10 -10 6 0 10 5 10 10 0 6 -4 10 -10 10 -5 0
-10 -4 -10 -10z"/>
<path d="M2555 5190 c-3 -5 -1 -10 4 -10 6 0 11 5 11 10 0 6 -2 10 -4 10 -3 0
-8 -4 -11 -10z"/>
<path d="M1550 5179 c0 -5 5 -7 10 -4 6 3 10 8 10 11 0 2 -4 4 -10 4 -5 0 -10
-5 -10 -11z"/>
<path d="M1570 5010 c0 -5 5 -10 10 -10 6 0 10 5 10 10 0 6 -4 10 -10 10 -5 0
-10 -4 -10 -10z"/>
<path d="M1610 4469 c0 -5 5 -7 10 -4 6 3 10 8 10 11 0 2 -4 4 -10 4 -5 0 -10
-5 -10 -11z"/>
<path d="M5191 4346 c-1 -30 3 -46 8 -40 5 5 6 27 1 49 l-8 40 -1 -49z"/>
<path d="M5193 4115 c2 -38 12 -46 20 -15 3 10 0 21 -7 24 -7 3 -6 8 4 15 13
9 13 11 -2 11 -13 0 -16 -8 -15 -35z"/>
<path d="M5200 4010 c0 -5 5 -10 11 -10 5 0 7 5 4 10 -3 6 -8 10 -11 10 -2 0
-4 -4 -4 -10z"/>
<path d="M5205 3930 c-3 -5 -1 -10 4 -10 6 0 11 5 11 10 0 6 -2 10 -4 10 -3 0
-8 -4 -11 -10z"/>
<path d="M5212 3805 c0 -16 2 -22 5 -12 2 9 2 23 0 30 -3 6 -5 -1 -5 -18z"/>
<path d="M5211 3714 c0 -11 3 -14 6 -6 3 7 2 16 -1 19 -3 4 -6 -2 -5 -13z"/>
<path d="M5291 3084 c0 -11 3 -14 6 -6 3 7 2 16 -1 19 -3 4 -6 -2 -5 -13z"/>
<path d="M5296 2926 c-4 -18 -3 -43 2 -55 6 -16 8 -7 9 33 2 64 -2 71 -11 22z"/>
</g>
</svg>
